<svg xmlns="http://www.w3.org/2000/svg" viewBox="0 0 21.17 21.17">
  <path d="M3.56 18.1c2.44-.34 4.82-2.2 6.62-3.72 4.38-3.7 6.66-6.74 8.3-10.67.83-1.95.64-3.36 1.9-3.68 1.26-.32.68 2.22.44 3.08-1.1 4.1-4.62 8.44-8.25 11.35a30.05 30.05 0 0 1-5.14 3.72c2.67-.26 3.33-.82 4.65-.74 1 .63.14 1.33-.5 1.52-1.05.3-2.22.37-3.3.56-1.8.32-3.59.7-5.35 1.15-.67.16-2.33.9-2.85.2-.2-.26 0-.57.15-.81.4-.63.81-1.26 1.13-1.94a13 13 0 0 0 1.04-3.33c.1-.6 0-1.5.32-2 .3-.48 1.9-1.2 2.15-.35.27.92-.2 2.35-.44 3.25"/>
</svg>