<svg xmlns="http://www.w3.org/2000/svg" viewBox="0 0 38.44 40">
  <path d="M21.92 0c-.22 0-.35.15-.38.37-.61 3.17-.57 3.22-3.9 3.9-.2.03-.36.15-.36.4 0 .22.15.34.36.38 3.35.65 3.29.73 3.9 3.9.03.2.16.36.39.36.22 0 .35-.16.4-.37.59-3.17.57-3.24 3.88-3.9.22-.03.35-.15.35-.38 0-.24-.13-.36-.35-.4-3.31-.67-3.29-.72-3.88-3.9-.05-.2-.18-.36-.41-.36Zm9.15 7.55c-.36 0-.6.24-.65.6-.66 5.13-.81 5.19-6.13 6.09-.34.05-.59.29-.59.65 0 .37.25.57.59.65 5.32.86 5.5.94 6.14 6.11.03.33.29.58.65.58.34 0 .59-.25.63-.62.63-5.13.84-5.21 6.06-6.07.41-.08.67-.27.67-.65 0-.36-.25-.6-.6-.65-5.3-.9-5.5-.93-6.13-6.08-.04-.36-.3-.61-.64-.61Zm-20.26.13c-.27.01-.57.08-.91.21C4.03 10.3 0 16.4 0 23.55 0 32.85 6.85 40 16.7 40c7 0 12.65-3.52 15.24-9.5.34-.81.23-1.45-.14-1.83-.34-.33-.91-.41-1.6-.14-1.43.57-3.19.9-5.39.9-8.54 0-14.05-5.33-14.05-13.72 0-2.31.44-4.6 1.03-5.81.38-.76.35-1.41.02-1.81a1.23 1.23 0 0 0-1-.4Z"/>
</svg>