<svg xmlns="http://www.w3.org/2000/svg" viewBox="0 0 40 40">
  <path d="M19.84 0a1.5 1.5 0 0 0-1.34 1.5v5.16a1.52 1.52 0 0 0 1.5 1.5 1.52 1.52 0 0 0 1.5-1.5V1.5A1.5 1.5 0 0 0 19.84 0ZM6.91 5.4a1.48 1.48 0 0 0-1.07.48 1.5 1.5 0 0 0 0 2.12l3.64 3.62a1.5 1.5 0 0 0 2.12 0 1.5 1.5 0 0 0 0-2.12L8 5.86a1.48 1.48 0 0 0-1.09-.46Zm26.15.01a1.48 1.48 0 0 0-1.06.45L28.36 9.5a1.48 1.48 0 0 0 0 2.12 1.5 1.5 0 0 0 2.12 0l3.64-3.64a1.5 1.5 0 0 0 0-2.12 1.48 1.48 0 0 0-1.06-.45zM20 10a10 10 0 1 0 10 10 10 10 0 0 0-10-10ZM1.5 18.5a1.5 1.5 0 0 0 0 3h5.16a1.52 1.52 0 0 0 1.5-1.5 1.52 1.52 0 0 0-1.5-1.5zm31.84 0a1.5 1.5 0 0 0 0 3h5.16A1.52 1.52 0 0 0 40 20a1.52 1.52 0 0 0-1.5-1.5Zm-22.8 9.43a1.48 1.48 0 0 0-1.06.45l-3.64 3.64a1.5 1.5 0 0 0 0 2.12 1.5 1.5 0 0 0 2.16 0l3.6-3.64a1.5 1.5 0 0 0 0-2.12 1.48 1.48 0 0 0-1.06-.45zm19.05.05a1.5 1.5 0 0 0-1.23 2.52L32 34.14a1.5 1.5 0 0 0 2.12 0 1.5 1.5 0 0 0 0-2.14l-3.64-3.62a1.5 1.5 0 0 0-.89-.4Zm-9.75 3.87a1.5 1.5 0 0 0-1.34 1.49v5.16A1.52 1.52 0 0 0 20 40a1.52 1.52 0 0 0 1.5-1.5v-5.16a1.5 1.5 0 0 0-1.66-1.5z"/>
</svg>